<?xml version="1.0" encoding="utf-8"?>
<svg viewBox="0 0 500 500" xmlns="http://www.w3.org/2000/svg">
  <path d="M 159 451.481 C 345.793 451.481 447.96 296.724 447.96 162.52 C 447.96 158.123 447.96 153.748 447.664 149.372 C 467.538 135.002 484.694 117.209 498.332 96.825 C 479.797 105.037 460.134 110.424 440.001 112.804 C 461.201 100.112 477.068 80.149 484.65 56.633 C 464.713 68.461 442.904 76.798 420.161 81.282 C 366.55 24.278 271.336 46.687 248.775 121.615 C 243.66 138.6 243.078 156.629 247.091 173.907 C 165.433 169.812 89.352 131.243 37.785 67.798 C 10.829 114.2 24.596 173.565 69.225 203.368 C 53.062 202.888 37.253 198.528 23.132 190.656 L 23.132 191.942 C 23.144 240.286 57.221 281.924 104.61 291.497 C 89.657 295.573 73.97 296.17 58.753 293.239 C 72.056 334.608 110.184 362.951 153.634 363.767 C 117.671 392.03 73.247 407.373 27.508 407.327 C 19.427 407.312 11.354 406.82 3.332 405.861 C 49.775 435.666 103.815 451.475 159 451.401" fill="#1da1f2"/>
</svg>