<?xml version="1.0" encoding="utf-8"?>
<svg viewBox="42.526 23.495 68 67.895" xmlns="http://www.w3.org/2000/svg">
  <ellipse style="fill: rgb(10, 112, 180);" transform="matrix(1, -0.000073, 0.000074, 1, -19.795513, -20.165262)" cx="96.263" cy="77.615" rx="33.945" ry="33.945"/>
  <ellipse style="fill: rgb(255, 255, 255);" transform="matrix(1, -0.000073, 0.000074, 1, -13.899029, -15.286618)" cx="90.301" cy="72.808" rx="31.844" ry="31.842"/>
  <ellipse style="fill: rgb(10, 112, 180);" transform="matrix(1, -0.000073, 0.000074, 1, -8.147078, -11.066179)" cx="84.542" cy="68.164" rx="29.811" ry="29.811"/>
  <path style="fill: rgb(255, 255, 255);" d="M 58.109 85.319 C 58.109 85.319 58.683 74.496 59.084 66.992 C 54.205 67.131 49.343 62.542 49.287 53.861 C 49.343 49.235 54.205 41.506 60.203 41.506 C 66.687 41.506 71.092 49.235 71.092 53.824 C 71.092 62.542 66.687 67.131 62.355 67.131 C 62.355 71.614 63.147 88.075 63.147 88.075 C 63.147 88.075 58.131 85.353 58.109 85.319 Z" transform="matrix(1, 0, 0, 1, 6.160808, -0.770062)"/>
  <path style="fill: rgb(255, 255, 255);" d="M 84.888 84.263 L 83.926 68.508 C 83.926 68.508 89.348 68.508 89.438 64.01 C 89.714 61.198 88.456 41.506 88.456 41.506 L 86.877 41.506 L 86.947 60.792 L 85.162 60.792 L 85.299 41.576 L 82.963 41.576 L 82.828 60.584 L 81.456 60.584 L 81.594 41.506 L 79.191 41.506 L 79.258 60.654 L 77.751 60.654 L 77.68 41.506 L 75.966 41.506 C 75.966 41.506 74.022 59.548 74.57 64.01 C 74.661 68.5 79.969 68.508 79.969 68.508 L 79.054 87.077 L 84.888 84.263 Z" transform="matrix(1, 0, 0, 1, 6.160808, -0.770062)"/>
</svg>